<svg width="361" height="62" viewBox="0 0 361 62" fill="none" xmlns="http://www.w3.org/2000/svg">
<path d="M7.656 15.496H30.312V19.576H12.024V30.184H28.632V34.264H12.024V49H7.656V15.496ZM62.8249 44.872V46.024C62.8249 47.048 63.0969 47.976 63.6409 48.808V49H59.1289C58.6809 48.264 58.4569 47.4 58.4569 46.408V45.64C58.4569 42.696 58.1529 40.68 57.5449 39.592C57.2569 39.016 56.8729 38.408 56.3929 37.768C55.4009 36.552 53.6889 35.944 51.2569 35.944H41.3209V49H36.9529V15.496H50.2969C54.6489 15.496 57.9129 16.392 60.0889 18.184C62.2649 19.976 63.3529 22.328 63.3529 25.24C63.3529 27.192 62.8249 28.952 61.7689 30.52C60.7129 32.056 59.1769 33.176 57.1609 33.88V33.976C60.9369 34.968 62.8249 38.6 62.8249 44.872ZM50.0089 31.816C52.7609 31.816 54.9369 31.272 56.5369 30.184C58.1689 29.096 58.9849 27.576 58.9849 25.624C58.9849 23.672 58.2809 22.184 56.8729 21.16C55.4969 20.136 53.1289 19.624 49.7689 19.624H41.3209V31.816H50.0089ZM94.3568 19.576H75.4928V30.184H92.6288V34.264H75.4928V44.92H94.3568V49H71.1248V15.496H94.3568V19.576ZM124.966 19.576H106.102V30.184H123.238V34.264H106.102V44.92H124.966V49H101.734V15.496H124.966V19.576ZM159.836 30.616H172.46V45.784C168.332 48.248 164.06 49.48 159.644 49.48C154.62 49.48 150.556 47.88 147.452 44.68C144.348 41.48 142.796 37.336 142.796 32.248C142.796 27.16 144.396 23.016 147.596 19.816C150.796 16.616 154.636 15.016 159.116 15.016C163.628 15.016 167.9 16.248 171.932 18.712V23.224H171.74C167.804 20.568 163.916 19.24 160.076 19.24C156.268 19.24 153.164 20.392 150.764 22.696C148.364 25 147.164 28.136 147.164 32.104C147.164 36.04 148.332 39.24 150.668 41.704C153.004 44.136 156.188 45.352 160.22 45.352C163.228 45.352 166.028 44.648 168.62 43.24V34.552H159.836V30.616ZM204.339 49L200.739 40.408H184.467L180.867 49H176.115L190.323 15.496H194.883L209.091 49H204.339ZM186.195 36.184V36.424H199.011V36.184L192.675 20.872H192.579L186.195 36.184ZM236.032 44.632V49H214V15.496H218.368V44.632H236.032ZM263.688 44.632V49H241.656V15.496H246.024V44.632H263.688ZM292.544 19.576H273.68V30.184H290.816V34.264H273.68V44.92H292.544V49H269.312V15.496H292.544V19.576ZM325.794 44.872V46.024C325.794 47.048 326.066 47.976 326.61 48.808V49H322.098C321.65 48.264 321.426 47.4 321.426 46.408V45.64C321.426 42.696 321.122 40.68 320.514 39.592C320.226 39.016 319.842 38.408 319.362 37.768C318.37 36.552 316.658 35.944 314.226 35.944H304.29V49H299.922V15.496H313.266C317.618 15.496 320.882 16.392 323.058 18.184C325.234 19.976 326.322 22.328 326.322 25.24C326.322 27.192 325.794 28.952 324.738 30.52C323.682 32.056 322.146 33.176 320.13 33.88V33.976C323.906 34.968 325.794 38.6 325.794 44.872ZM312.978 31.816C315.73 31.816 317.906 31.272 319.506 30.184C321.138 29.096 321.954 27.576 321.954 25.624C321.954 23.672 321.25 22.184 319.842 21.16C318.466 20.136 316.098 19.624 312.738 19.624H304.29V31.816H312.978ZM355.406 15.496H360.734L347.102 34.84V49H342.734V34.84L329.101 15.496H334.43L344.798 30.808H345.038L355.406 15.496Z" fill="#2B2D42"/>
<path d="M4.656 15.496H27.312V19.576H9.024V30.184H25.632V34.264H9.024V49H4.656V15.496ZM59.8249 44.872V46.024C59.8249 47.048 60.0969 47.976 60.6409 48.808V49H56.1289C55.6809 48.264 55.4569 47.4 55.4569 46.408V45.64C55.4569 42.696 55.1529 40.68 54.5449 39.592C54.2569 39.016 53.8729 38.408 53.3929 37.768C52.4009 36.552 50.6889 35.944 48.2569 35.944H38.3209V49H33.9529V15.496H47.2969C51.6489 15.496 54.9129 16.392 57.0889 18.184C59.2649 19.976 60.3529 22.328 60.3529 25.24C60.3529 27.192 59.8249 28.952 58.7689 30.52C57.7129 32.056 56.1769 33.176 54.1609 33.88V33.976C57.9369 34.968 59.8249 38.6 59.8249 44.872ZM47.0089 31.816C49.7609 31.816 51.9369 31.272 53.5369 30.184C55.1689 29.096 55.9849 27.576 55.9849 25.624C55.9849 23.672 55.2809 22.184 53.8729 21.16C52.4969 20.136 50.1289 19.624 46.7689 19.624H38.3209V31.816H47.0089ZM91.3568 19.576H72.4928V30.184H89.6288V34.264H72.4928V44.92H91.3568V49H68.1248V15.496H91.3568V19.576ZM121.966 19.576H103.102V30.184H120.238V34.264H103.102V44.92H121.966V49H98.7341V15.496H121.966V19.576ZM156.836 30.616H169.46V45.784C165.332 48.248 161.06 49.48 156.644 49.48C151.62 49.48 147.556 47.88 144.452 44.68C141.348 41.48 139.796 37.336 139.796 32.248C139.796 27.16 141.396 23.016 144.596 19.816C147.796 16.616 151.636 15.016 156.116 15.016C160.628 15.016 164.9 16.248 168.932 18.712V23.224H168.74C164.804 20.568 160.916 19.24 157.076 19.24C153.268 19.24 150.164 20.392 147.764 22.696C145.364 25 144.164 28.136 144.164 32.104C144.164 36.04 145.332 39.24 147.668 41.704C150.004 44.136 153.188 45.352 157.22 45.352C160.228 45.352 163.028 44.648 165.62 43.24V34.552H156.836V30.616ZM201.339 49L197.739 40.408H181.467L177.867 49H173.115L187.323 15.496H191.883L206.091 49H201.339ZM183.195 36.184V36.424H196.011V36.184L189.675 20.872H189.579L183.195 36.184ZM233.032 44.632V49H211V15.496H215.368V44.632H233.032ZM260.688 44.632V49H238.656V15.496H243.024V44.632H260.688ZM289.544 19.576H270.68V30.184H287.816V34.264H270.68V44.92H289.544V49H266.312V15.496H289.544V19.576ZM322.794 44.872V46.024C322.794 47.048 323.066 47.976 323.61 48.808V49H319.098C318.65 48.264 318.426 47.4 318.426 46.408V45.64C318.426 42.696 318.122 40.68 317.514 39.592C317.226 39.016 316.842 38.408 316.362 37.768C315.37 36.552 313.658 35.944 311.226 35.944H301.29V49H296.922V15.496H310.266C314.618 15.496 317.882 16.392 320.058 18.184C322.234 19.976 323.322 22.328 323.322 25.24C323.322 27.192 322.794 28.952 321.738 30.52C320.682 32.056 319.146 33.176 317.13 33.88V33.976C320.906 34.968 322.794 38.6 322.794 44.872ZM309.978 31.816C312.73 31.816 314.906 31.272 316.506 30.184C318.138 29.096 318.954 27.576 318.954 25.624C318.954 23.672 318.25 22.184 316.842 21.16C315.466 20.136 313.098 19.624 309.738 19.624H301.29V31.816H309.978ZM352.406 15.496H357.734L344.102 34.84V49H339.734V34.84L326.101 15.496H331.43L341.798 30.808H342.038L352.406 15.496Z" fill="#2B2D42"/>
</svg>
