<svg width="344" height="34" viewBox="0 0 344 34" fill="none" xmlns="http://www.w3.org/2000/svg">
<path d="M17.875 16.0781V20.0625H4.375V33H0.15625V1.59375H20.6875V5.57812H4.375V16.0781H17.875ZM41.9688 1.59375C43.7812 1.59375 45.5156 1.9375 47.1719 2.625C48.8281 3.28125 50.1875 4.3125 51.25 5.71875C52.3438 7.09375 52.8906 8.85938 52.8906 11.0156C52.8906 12.9531 52.3281 14.5938 51.2031 15.9375C50.1094 17.2812 48.7031 18.2969 46.9844 18.9844C45.2969 19.6406 43.5469 19.9688 41.7344 19.9688C41.1719 19.9688 40.4219 19.9375 39.4844 19.875L54.1094 33H47.6406L34.1406 19.875V33H29.9219V1.59375H41.9688ZM34.1406 5.57812V15.6562C35.1719 15.9375 36.2969 16.1562 37.5156 16.3125C38.7344 16.4688 39.9375 16.5469 41.125 16.5469C43.5 16.5469 45.3281 16.0469 46.6094 15.0469C47.9219 14.0469 48.5781 12.7031 48.5781 11.0156C48.5781 9.26562 47.8594 7.92188 46.4219 6.98438C45.0156 6.04688 43.2969 5.57812 41.2656 5.57812H34.1406ZM79.2344 14.9062V18.8906H63.9531V29.0156H81.25V33H59.7344V1.59375H81.25V5.57812H63.9531V14.9062H79.2344ZM109.656 14.9062V18.8906H94.375V29.0156H111.672V33H90.1562V1.59375H111.672V5.57812H94.375V14.9062H109.656ZM146.641 15.8438H160.469V28.7344C159.719 29.5469 158.75 30.3438 157.562 31.125C156.375 31.875 155 32.5 153.438 33C151.906 33.4688 150.219 33.7031 148.375 33.7031C146 33.7031 143.812 33.2812 141.812 32.4375C139.812 31.5625 138.062 30.375 136.562 28.875C135.062 27.375 133.891 25.6406 133.047 23.6719C132.234 21.6719 131.828 19.5469 131.828 17.2969C131.828 15.0469 132.234 12.9375 133.047 10.9688C133.891 8.96875 135.062 7.21875 136.562 5.71875C138.062 4.21875 139.812 3.04688 141.812 2.20312C143.812 1.32813 146 0.890625 148.375 0.890625C150.656 0.890625 152.516 1.20312 153.953 1.82812C155.422 2.45313 156.703 3.26562 157.797 4.26562V8.90625C157.109 8.40625 156.328 7.85938 155.453 7.26562C154.609 6.67188 153.609 6.15625 152.453 5.71875C151.328 5.25 149.969 5.01562 148.375 5.01562C146.031 5.01562 143.938 5.54688 142.094 6.60938C140.25 7.67188 138.797 9.14062 137.734 11.0156C136.672 12.8594 136.141 14.9531 136.141 17.2969C136.141 19.6406 136.672 21.7344 137.734 23.5781C138.797 25.4219 140.25 26.8906 142.094 27.9844C143.938 29.0469 146.031 29.5781 148.375 29.5781C149.969 29.5781 151.25 29.4219 152.219 29.1094C153.188 28.7656 153.953 28.3906 154.516 27.9844C155.078 27.5469 155.531 27.1875 155.875 26.9062L155.922 19.5938H146.641V15.8438ZM179.594 1.59375L194.266 33H189.203L185.922 25.5H171.203L167.875 33H162.812L177.484 1.59375H179.594ZM178.609 8.71875L172.938 21.5156H184.188L178.609 8.71875ZM204.109 1.59375V29.0156H221.406V33H199.891V1.59375H204.109ZM233.922 1.59375V29.0156H251.219V33H229.703V1.59375H233.922ZM279.016 14.9062V18.8906H263.734V29.0156H281.031V33H259.516V1.59375H281.031V5.57812H263.734V14.9062H279.016ZM301.984 1.59375C303.797 1.59375 305.531 1.9375 307.188 2.625C308.844 3.28125 310.203 4.3125 311.266 5.71875C312.359 7.09375 312.906 8.85938 312.906 11.0156C312.906 12.9531 312.344 14.5938 311.219 15.9375C310.125 17.2812 308.719 18.2969 307 18.9844C305.312 19.6406 303.562 19.9688 301.75 19.9688C301.188 19.9688 300.438 19.9375 299.5 19.875L314.125 33H307.656L294.156 19.875V33H289.938V1.59375H301.984ZM294.156 5.57812V15.6562C295.188 15.9375 296.312 16.1562 297.531 16.3125C298.75 16.4688 299.953 16.5469 301.141 16.5469C303.516 16.5469 305.344 16.0469 306.625 15.0469C307.938 14.0469 308.594 12.7031 308.594 11.0156C308.594 9.26562 307.875 7.92188 306.438 6.98438C305.031 6.04688 303.312 5.57812 301.281 5.57812H294.156ZM343.703 1.59375L331.656 20.1094V33H327.109V20.7188L315.062 1.59375H320.125L329.312 16.4062L338.641 1.59375H343.703Z" fill="#2B2D42"/>
</svg>
